<?xml version="1.0" standalone="no"?>
<!DOCTYPE svg PUBLIC "-//W3C//DTD SVG 20010904//EN"
 "http://www.w3.org/TR/2001/REC-SVG-20010904/DTD/svg10.dtd">
<svg version="1.0" xmlns="http://www.w3.org/2000/svg"
 width="100.000000pt" height="100.000000pt" viewBox="0 0 100.000000 100.000000"
 preserveAspectRatio="xMidYMid meet">
<metadata>
Created by potrace 1.16, written by Peter Selinger 2001-2019
</metadata>
<g transform="translate(0.000000,100.000000) scale(0.100000,-0.100000)"
fill="#000000" stroke="none">
<path d="M26 794 l-26 -27 0 -267 0 -267 26 -27 27 -26 317 0 317 0 27 26 26
27 0 267 0 267 -26 27 -27 26 -317 0 -317 0 -27 -26z"/>
<path d="M888 702 l-108 -57 0 -145 0 -145 110 -58 110 -58 0 261 c0 143 -1
260 -2 260 -2 -1 -51 -27 -110 -58z"/>
</g>
</svg>
